<?xml version="1.0" encoding="utf-8"?>
<!-- Generator: Adobe Illustrator 24.0.0, SVG Export Plug-In . SVG Version: 6.00 Build 0)  -->
<svg version="1.1" id="Layer_1" xmlns="http://www.w3.org/2000/svg" xmlns:xlink="http://www.w3.org/1999/xlink" x="0px" y="0px"
	 viewBox="0 0 250 250" style="enable-background:new 0 0 250 250;" xml:space="preserve">
<style type="text/css">
	.st0{fill:#FFFFFF;}
</style>
<g>
	<path class="st0" d="M145.6,120.7h-9.3c-1.3-3.5-4-6.3-7.6-7.5V99.4c0-4.2-0.1-8.5,0.1-12.7c-0.7-4.2-2.5-8.5-4.2-12.7
		c-1.8,4.2-3.5,8.5-4.2,12.7c0.1,4.2,0,8.5,0.1,12.7v13.8c-4.8,1.7-8.2,6.2-8.2,11.6c0,6.9,5.6,12.5,12.5,12.5
		c5.4,0,9.9-3.5,11.7-8.3h9.3c3.5-0.2,7,0.4,10.5-0.4c3.5-1.3,7-2.3,10.5-3.8c-3.5-1.5-7-2.5-10.5-3.8
		C152.6,120.2,149.1,120.9,145.6,120.7z"/>
	<path class="st0" d="M32,76.8l-1.3,13.7c-0.2,2.3,1.5,4.3,3.7,4.6c0.1,0,0.3,0,0.4,0c2.1,0,3.9-1.6,4.2-3.8l2.7-27.2
		c0-0.1,0-0.1,0-0.2c0-0.6,0-1.2-0.3-1.8c0,0,0-0.1-0.1-0.1c-0.2-0.5-0.5-0.9-0.9-1.3c-0.1-0.1-0.1-0.1-0.2-0.1c0,0-0.1-0.1-0.1-0.2
		c-0.1-0.1-0.3-0.1-0.4-0.2c-0.4-0.2-0.7-0.4-1.1-0.5c-0.2-0.1-0.4-0.1-0.6-0.1c-0.4,0-0.9,0-1.3,0.1c-0.1,0-0.3,0-0.4,0L9.1,68.2
		c-2.2,0.7-3.4,3-2.7,5.2c0.7,2.2,3,3.4,5.2,2.7l13.7-4.3C14.2,87.3,8.2,105.7,8.3,125c0.1,24.2,9.6,46.9,26.8,64
		c0.8,0.8,1.9,1.2,2.9,1.2c1.1,0,2.1-0.4,3-1.2c1.6-1.6,1.6-4.3,0-5.9C11.9,154.2,8.9,109,32,76.8z"/>
	<path class="st0" d="M242.8,176.3c-0.7-2.2-3-3.4-5.2-2.7l-13.7,4.3c11.1-15.4,17.1-33.8,17-53.1c-0.1-24.2-9.6-46.9-26.8-64
		c-1.6-1.6-4.3-1.6-5.9,0c-1.6,1.6-1.6,4.3,0,5.9c29.1,28.8,32,74,8.9,106.3l1.3-13.7c0.2-2.3-1.5-4.3-3.7-4.6
		c-2.5-0.2-4.3,1.5-4.6,3.7l-2.7,27.2c0,0.1,0,0.1,0,0.2c0,0.6,0,1.2,0.3,1.8c0,0,0,0.1,0.1,0.1c0.2,0.5,0.5,0.9,0.9,1.3
		c0.1,0.1,0.1,0.1,0.2,0.1c0,0,0.1,0.1,0.1,0.2c0.1,0.1,0.2,0,0.3,0.1c0.7,0.5,1.5,0.8,2.4,0.8c0.4,0,0.8-0.1,1.2-0.2l27.1-8.4
		C242.3,180.8,243.5,178.5,242.8,176.3z"/>
	<path class="st0" d="M202,169c7.5-13,11.8-28.1,11.8-44.2s-4.3-31.1-11.8-44.2c-0.1-0.1-0.1-0.3-0.1-0.4c-0.1-0.2-0.3-0.3-0.4-0.4
		c-7.7-13.2-18.7-24.1-31.9-31.9c-0.1-0.1-0.2-0.3-0.4-0.4c-0.1-0.1-0.3-0.1-0.4-0.1c-13-7.5-28.1-11.8-44.2-11.8
		c-16.1,0-31.1,4.3-44.2,11.8c-0.1,0.1-0.3,0.1-0.4,0.1c-0.2,0.1-0.3,0.3-0.4,0.4c-13.1,7.7-24.1,18.7-31.8,31.8
		c-0.1,0.2-0.3,0.3-0.4,0.4c-0.1,0.1-0.1,0.3-0.1,0.4c-7.5,13-11.8,28.1-11.8,44.2S39.7,156,47.2,169c0.1,0.1,0.1,0.3,0.1,0.4
		c0.1,0.1,0.2,0.2,0.3,0.3c7.7,13.2,18.7,24.2,31.9,32c0.2,0.1,0.3,0.3,0.4,0.4c0.1,0.1,0.2,0,0.3,0.1c13.1,7.5,28.1,11.9,44.3,11.9
		c16.1,0,31.2-4.4,44.3-11.9c0.1-0.1,0.2,0,0.3-0.1c0.2-0.1,0.3-0.3,0.4-0.4c13.2-7.8,24.2-18.8,31.9-32c0.1-0.1,0.2-0.2,0.3-0.3
		C201.9,169.3,201.9,169.2,202,169z M168.5,192.6l-3.1-5.3c-1.2-2-3.7-2.7-5.7-1.5c-2,1.1-2.7,3.7-1.5,5.7l3.1,5.3
		c-9.9,5.1-20.9,8.1-32.5,8.7v-6.1c0-2.3-1.9-4.2-4.2-4.2c-2.3,0-4.2,1.9-4.2,4.2v6.1c-11.7-0.6-22.7-3.6-32.6-8.7l3.1-5.3
		c1.1-2,0.5-4.5-1.5-5.7c-2-1.1-4.5-0.5-5.7,1.5l-3.1,5.3c-9.5-6.2-17.6-14.3-23.8-23.8l5.3-3.1c2-1.1,2.7-3.7,1.5-5.7
		c-1.2-2-3.7-2.7-5.7-1.5l-5.3,3.1c-5.1-9.9-8.1-20.9-8.7-32.6H50c2.3,0,4.2-1.9,4.2-4.2s-1.9-4.2-4.2-4.2h-6.1
		c0.6-11.7,3.6-22.7,8.7-32.6l5.3,3.1c0.7,0.4,1.4,0.6,2.1,0.6c1.4,0,2.8-0.8,3.6-2.1c1.1-2,0.5-4.5-1.5-5.7l-5.3-3.1
		C63,71.4,71.1,63.2,80.6,57l3.1,5.3c0.8,1.3,2.2,2.1,3.6,2.1c0.7,0,1.4-0.2,2.1-0.6c2-1.1,2.7-3.7,1.5-5.7l-3.1-5.3
		c9.9-5.1,20.9-8.1,32.6-8.7v6.1c0,2.3,1.9,4.2,4.2,4.2c2.3,0,4.2-1.9,4.2-4.2v-6.1c11.7,0.6,22.7,3.6,32.5,8.7l-3.1,5.3
		c-1.1,2-0.5,4.5,1.5,5.7c0.7,0.4,1.4,0.6,2.1,0.6c1.4,0,2.8-0.8,3.6-2.1l3.1-5.3c9.5,6.2,17.6,14.3,23.8,23.8L187,84
		c-2,1.1-2.7,3.7-1.5,5.7c0.8,1.3,2.2,2.1,3.6,2.1c0.7,0,1.4-0.2,2.1-0.6l5.3-3.1c5.1,9.9,8.1,20.9,8.7,32.6h-6.1
		c-2.3,0-4.2,1.9-4.2,4.2s1.9,4.2,4.2,4.2h6.1c-0.6,11.7-3.6,22.7-8.7,32.6l-5.3-3.1c-2-1.1-4.5-0.5-5.7,1.5c-1.1,2-0.5,4.5,1.5,5.7
		l5.3,3.1C186.2,178.3,178,186.4,168.5,192.6z"/>
</g>
</svg>
