<?xml version="1.0" encoding="utf-8"?>
<!-- Generator: Adobe Illustrator 24.0.0, SVG Export Plug-In . SVG Version: 6.00 Build 0)  -->
<svg version="1.1" id="Layer_1" xmlns="http://www.w3.org/2000/svg" xmlns:xlink="http://www.w3.org/1999/xlink" x="0px" y="0px"
	 viewBox="0 0 250 250" style="enable-background:new 0 0 250 250;" xml:space="preserve">
<style type="text/css">
	.st0{fill:#FFFFFF;}
</style>
<path class="st0" d="M212.2,92.7c-0.1-0.2-0.2-0.4-0.4-0.6c-0.1-0.1-0.1-0.2-0.2-0.3c0,0,0,0,0,0c-0.2-0.2-0.5-0.4-0.7-0.5
	c-0.1,0-0.1-0.1-0.2-0.1c-0.1,0-0.2,0-0.3-0.1c-0.3-0.1-0.6-0.2-0.9-0.2c0,0,0,0,0,0c-0.1,0-0.2,0.1-0.4,0.1c-0.3,0-0.5,0.1-0.7,0.2
	c-0.2,0.1-0.4,0.2-0.5,0.3c-0.1,0.1-0.3,0.1-0.4,0.2l-15.3,14.7l10.5-27.7c3.6-9.4,0.5-19.8-6.9-25.8c12.2-8,18.3-16.2,16.7-22.8
	c-0.9-3.8-4.4-6.4-9-6.7c-5.7-0.3-12.8,2.6-18.9,9.3c-0.1-9.1-3.5-16-7.9-19.5c-3.7-2.9-7.9-3.2-11.2-1c-5.6,3.9-6.5,14.1-2.7,28.2
	c-9.6-0.4-18.7,5.3-22.3,14.7l-14,36.8l-0.2-0.2c-1.1-1.1-2.9-1.1-4.1,0l-2.6,2.5c-0.4-6.8-1.3-13.8-2.8-20.9
	c-8-36.9-28.7-62.7-47.2-58.7c-13.5,2.9-21.5,20.7-21.8,44.5c-0.1,0.8-0.1,1.6,0,2.3c0.1,8.2,1,17,3,26.2v0c0,0,0,0,0,0
	c1.4,6.5,3.2,12.6,5.4,18.5l-15-14.4c-0.1-0.1-0.2-0.1-0.3-0.2c-0.2-0.1-0.4-0.3-0.6-0.4C40.1,91,39.9,91,39.6,91
	c-0.1,0-0.3-0.1-0.4-0.1c0,0,0,0,0,0c-0.3,0-0.5,0.1-0.8,0.2c-0.1,0-0.2,0-0.3,0.1c-0.1,0-0.1,0.1-0.2,0.1c-0.3,0.1-0.6,0.3-0.8,0.5
	c0,0,0,0,0,0C37,91.9,37,92,36.9,92.1c-0.1,0.2-0.3,0.4-0.4,0.6c-0.1,0.2-0.1,0.5-0.1,0.7c0,0.1-0.1,0.3-0.1,0.4v135.5
	c0,5.4,4.9,9.7,10.9,9.7h154.3c6,0,10.9-4.4,10.9-9.7V93.8c0-0.1-0.1-0.2-0.1-0.4C212.3,93.2,212.3,93,212.2,92.7z M203.1,29.2
	c1,0.1,3.2,0.4,3.7,2.2c0.6,2.6-2.2,9.3-16.6,18.1c-0.3-0.1-0.5-0.2-0.8-0.3l-6.8-2.6C188.5,33.3,197.9,28.9,203.1,29.2z M168.9,17
	c1.5-1.1,3.4,0.2,4.2,0.8c4.1,3.2,8.2,12.7,3.8,26.6l-6.8-2.6c-0.3-0.1-0.5-0.2-0.8-0.3C164.3,25.5,166.7,18.6,168.9,17z M146,57.2
	c3.3-8.8,13.2-13.2,22-9.9l9.6,3.7h0h0l9.6,3.7c8.8,3.3,13.2,13.2,9.9,22l-11.7,30.9l-16.5-15.8c-1.1-1.1-2.9-1.1-4.1,0l-19.2,18.5
	l-14.4-13.9L146,57.2z M70.9,20.4c14.7-3.2,33.2,21.7,40.2,54.2c1.9,8.6,2.8,17,2.8,25.2l-10.9,10.4L83.8,91.7
	c-1.1-1.1-2.9-1.1-4.1,0l-16.6,15.9c-2.7-6.6-4.9-13.6-6.5-21c1-2.4,12.3-8.7,32.2-13c1.6-0.3,2.6-1.9,2.3-3.5
	c-0.3-1.6-1.9-2.6-3.5-2.3c-9.9,2.1-19.1,5.1-25.8,8.2c-2.6,1.2-4.8,2.5-6.5,3.7c-1.1-7-1.6-13.9-1.6-20.3
	c1.2-3.7,8.6-9.3,20.6-11.9c1.6-0.3,2.6-1.9,2.3-3.5c-0.3-1.6-1.9-2.6-3.5-2.3c-7.8,1.7-14.3,4.6-18.8,8.1
	C56.2,33.9,62,22.3,70.9,20.4z M201.5,233.1H47.2c-2.7,0-5-1.8-5-3.8V100.7l16.3,15.7c1.1,1.1,2.9,1.1,4.1,0l19.2-18.5l19.2,18.5
	c1.1,1.1,2.9,1.1,4.1,0l13.8-13.3c0,0,0.1-0.1,0.1-0.1l5.3-5.1l1.4,1.3c0,0,0,0,0,0l17.9,17.2c1.1,1.1,2.9,1.1,4.1,0l19.2-18.5
	l19.3,18.5c0.6,0.5,1.3,0.8,2,0.8s1.5-0.3,2-0.8l16.3-15.7v128.6C206.6,231.4,204.3,233.1,201.5,233.1z"/>
</svg>
