<?xml version="1.0" encoding="utf-8"?>
<!-- Generator: Adobe Illustrator 24.0.0, SVG Export Plug-In . SVG Version: 6.00 Build 0)  -->
<svg version="1.1" id="Layer_1" xmlns="http://www.w3.org/2000/svg" xmlns:xlink="http://www.w3.org/1999/xlink" x="0px" y="0px"
	 viewBox="0 0 250 250" style="enable-background:new 0 0 250 250;" xml:space="preserve">
<style type="text/css">
	.st0{fill:#FFFFFF;}
</style>
<path class="st0" d="M211.1,118.7h-6.6l0-0.6c-1.7-37.2-28.5-67.9-65-74.8l-1.1-0.2l0.8-0.8c3.8-3.8,5.8-8.9,5.8-14.2
	c0-11.2-9.1-20.4-20.4-20.4s-20.4,9.1-20.4,20.4c0,5.4,2.1,10.4,5.8,14.2l0.8,0.8l-1.1,0.2c-36.6,6.9-63.3,37.7-65,74.8l0,0.6H38
	c-1.7,0-3.2,1.6-3.2,3.5c0,17.3,14.1,31.4,31.5,31.4h31.4l-0.7,0.9c-4.2,5.8-9.2,11.1-14.9,15.7c-0.7,0.6-1.7,1.3-2.7,1.9
	c-11.8,7.9-21.4,18.9-27.9,31.7c-0.1,0.1-0.6,1.2-0.8,1.5l-0.1,0.1c-0.6,1.3-1.7,3-2.7,4.7l-0.9,1.6l-2.8-1.8
	c-0.7-0.5-1.6-0.6-2.4-0.4c-0.8,0.2-1.5,0.7-2,1.4c-0.5,0.7-0.6,1.6-0.4,2.4c0.2,0.8,0.7,1.6,1.4,2l34.6,22.3l5.9,3.8
	c0.5,0.3,1.1,0.5,1.7,0.5c1.1,0,2.1-0.6,2.7-1.5c0.5-0.7,0.6-1.6,0.4-2.4c-0.2-0.8-0.7-1.5-1.4-2l-3.4-2.2l0.3-0.5
	c1.6-2.5,2.6-4.2,3-5c3.6-6.7,9.7-10.7,16.4-10.7c0.2,0,0.3,0,0.5,0l32.3,0.2c0.1,0,0.7-0.1,1-0.1l0.2,0c3.3-0.3,6.3-0.6,9.2-1.6
	c7.4-2.4,13.9-7.6,18.2-14.4l27.6-43.8c0.8-1.2,0.9-2.8,0.4-4.2c-0.1-0.1-0.1-0.3-0.2-0.4l-0.4-0.7l0.7-0.2
	c13.9-3.6,23.6-16.2,23.6-30.7C214.4,120.1,212.9,118.7,211.1,118.7z M110.6,28c0-7.7,6.3-13.9,13.9-13.9s13.9,6.3,13.9,13.9
	c0,7.2-5.4,13.1-12.5,13.9l-0.5,0c-0.8,0-1.5,0-2.3,0C116,41.2,110.6,35.2,110.6,28z M51.1,118c2-38.2,33.5-68.8,71.8-69.7h0.1
	c1,0.1,2.2,0.1,3.2,0c38.3,0.9,69.9,31.5,71.8,69.7l0,0.6h-147L51.1,118z M157.2,198.3c-3.5,5.6-8.8,9.8-14.8,11.8
	c-2.2,0.7-4.8,1-8,1.3l-0.3,0l-32.3-0.2c-0.2,0-0.4,0-0.6,0c-9,0-17.4,5.3-22.1,14.1c-0.5,0.9-1.6,2.7-2.7,4.6l-0.3,0.5l-0.5-0.3
	l-23.1-14.9l0.8-1.3c1.3-2.2,2.5-4.2,3.2-5.6l0.8-1.6c5.9-11.8,14.8-21.9,25.7-29.2c1.3-0.9,2.4-1.7,3.2-2.3c8.3-6.7,15-14.4,20-23
	c0.1-0.2,0.2-0.3,0.3-0.5c1.9-3.3,3.4-6.6,4.6-9.8l0.4-1.1l0.6,1c1.7,2.8,3.5,5.7,4.4,8.9c0,0.2,0.1,0.4,0.1,0.6
	c0.8,3.4,0.3,6.8-1.3,10.2c-6,12.8-11.7,19.8-11.8,19.9c-0.7,0.8-0.9,2-0.6,3c0.3,1.1,1.2,1.9,2.2,2.1c10.6,2.8,19.9,4.2,27.8,4.2
	c0,0,0,0,0,0c19,0,23.3-8.1,23.7-9l8.4-15.6c3.2-5.9,9.5-9.6,16.2-9.6c0.3,0,0.7,0,1,0l1,0.1L157.2,198.3z M123.4,153.6h45.3
	l-1.5,1.1c-0.4,0.3-0.9,0.6-1.3,0.9l-0.2,0.1l-7,0c-4.9,0.2-9.5,2.2-13,5.6l-0.2,0.2h-0.2l-6.7,0.1c-5.6,0.1-10.8,3-13.8,7.8
	l-8.5,13.3l-0.4-0.1c-1.2-0.2-2.4-0.5-3.7-0.8l-0.8-0.2l0.5-0.7c3.3-4.9,6.4-10.5,9.2-16.5c1.6-3.4,2.3-6.8,2.3-10.2L123.4,153.6z
	 M147.9,168.9c2.4-4,6.5-6.5,11.1-6.7h1.1l-0.5,1l-8.5,15.7c0,0-2.2,3.8-11,5.1l-1.2,0.2L147.9,168.9z M131.1,184.4l-0.3,0
	c-2-0.1-4.2-0.2-6.6-0.5l-0.9-0.1l7-11c1.9-2.9,5.1-4.7,8.5-4.8l2.1,0L131.1,184.4z M207.7,125.7c-1.8,12.2-12.4,21.4-24.8,21.4
	h-60.8l-0.1-0.4c-1.2-3.3-3-6.1-4.4-8.4c-1.3-2-3.5-3.3-5.9-3.3c-0.2,0-0.4,0-0.6,0c-2.6,0.2-4.8,1.9-5.8,4.3
	c-1,2.4-2.1,4.9-3.5,7.4l-0.2,0.3H66.3c-12.4,0-22.9-9-24.7-21.4l-0.1-0.7h166.3L207.7,125.7z"/>
<path class="st0" d="M129.7,62.7c0.5,0.7,1.3,1.1,2.1,1.3c1.4,0.2,34.8,5.6,45.7,35.8c0.5,1.3,1.7,2.1,3,2.1c0.4,0,0.8-0.1,1.1-0.2
	c1.7-0.6,2.5-2.5,1.9-4.1c-12.5-34.3-49.3-39.7-50.9-40c-0.2,0-0.3,0-0.5,0c-0.7,0-1.3,0.2-1.8,0.6c-0.7,0.5-1.1,1.3-1.3,2.2
	C129,61.1,129.2,62,129.7,62.7z"/>
</svg>
