<?xml version="1.0" encoding="utf-8"?>
<!-- Generator: Adobe Illustrator 24.0.0, SVG Export Plug-In . SVG Version: 6.00 Build 0)  -->
<svg version="1.1" id="Layer_1" xmlns="http://www.w3.org/2000/svg" xmlns:xlink="http://www.w3.org/1999/xlink" x="0px" y="0px"
	 viewBox="0 0 250 250" style="enable-background:new 0 0 250 250;" xml:space="preserve">
<style type="text/css">
	.st0{fill:#FFFFFF;}
</style>
<g>
	<path class="st0" d="M230.8,5.7H94.9C87,5.7,80.6,12.1,80.6,20v107.1H36.7c-2.9,0-5.3,2.4-5.3,5.3v10.2l-19.2,16.3
		c-0.6,0.5-0.9,1.2-0.9,2v57.7H6.7c-1.4,0-2.6,1.2-2.6,2.6v20.3c0,1.4,1.2,2.6,2.6,2.6h59.5c1.4,0,2.6-1.2,2.6-2.6v-20.3
		c0-1.4-1.2-2.6-2.6-2.6h-3.2v-11.9l0.6-0.5c3.7-2.7,9.9-9.3,9.3-22.5l-0.1-1.6h7.7v5.2c0,7.9,6.4,14.3,14.3,14.3h135.8
		c7.9,0,14.3-6.4,14.3-14.3V20C245.1,12.1,238.7,5.7,230.8,5.7z M63.6,223.7v15.1H9.3v-15.1H63.6z M59.4,202.8L59.4,202.8
		c-0.9,0.4-1.5,1.4-1.5,2.4v13.4H16.5V162l14.9-12.6v18.3l-8.2,7.8c-0.5,0.5-0.8,1.1-0.8,1.8c0,0.7,0.2,1.3,0.7,1.8
		c0.5,0.5,1.3,0.7,1.9,0.8c0.7,0,1.3-0.2,1.8-0.7l30.6-29.2l1.1,1.1c1.3,1.3,2.1,2.9,2.3,4.5c0.5,4.1-2.4,9.2-8.6,14.8
		c-0.8,0.7-1.1,1.8-0.7,2.8c0,0.1,3.1,9.2-0.7,16c-2,3.6-5.6,5.9-11,7.1c-1.4,0.3-2.3,1.7-2,3.1c0.3,1.4,1.8,2.2,3.1,2
		c6.8-1.5,11.7-4.7,14.5-9.7c1.3-2.4,2.1-5,2.3-8.4l0.1-1.4h9.8l0.1,1.5C68.5,198.2,59.5,202.7,59.4,202.8z M57.6,176.8l-0.6-3.5
		l0.6-0.6c6.3-6.3,9.2-12.2,8.4-17.7c-0.8-5.6-5.4-9.3-7.8-10.4c-1-0.5-2.2-0.3-2.9,0.4l-18.6,17.7v-30.4h86.5v44.5H57.6z
		 M239.9,187.2c0,5-4.1,9.1-9.1,9.1H94.9c-5,0-9.1-4.1-9.1-9.1V182h37.2c2.9,0,5.3-2.4,5.3-5.3v-44.4c0-2.9-2.4-5.3-5.3-5.3H85.8V20
		c0-5,4.1-9.1,9.1-9.1h135.8c5,0,9.1,4.1,9.1,9.1V187.2z"/>
	<path class="st0" d="M113.7,54.3l1.9-0.4l-0.2,31.1c0,0.7,0.3,1.4,0.8,1.9c0.5,0.5,1.2,0.7,1.8,0.7h38.7c0.7,0,1.4-0.3,1.9-0.8
		c0.5-0.5,0.7-1.2,0.7-1.9l-0.2-31.2l1.9,0.4c0.8,0.2,1.8-0.1,2.4-0.7l11.2-11.3c0.5-0.5,0.7-1.2,0.7-1.9c0-0.7-0.3-1.3-0.8-1.8
		l-13.2-12.9c-2.2-2.1-4.8-3.7-7.8-4.5l-5.3-1.5c-1.1-0.3-2.3,0.1-2.9,1.1c-1.7,2.7-4.7,4.3-8.1,4.3c0,0,0,0,0,0
		c-3.4,0-6.5-1.6-8.1-4.3c-0.6-1-1.7-1.5-2.9-1.1l-5.3,1.5c-2.9,0.8-5.6,2.4-7.8,4.5l-13.2,12.9c-0.5,0.5-0.8,1.2-0.8,1.8
		s0.3,1.4,0.8,1.9l11.2,11.3C111.9,54.3,112.8,54.5,113.7,54.3z M116.9,29.5c1.6-1.5,3.5-2.6,5.6-3.2l3.5-1l0.7,0.7
		c2.6,2.8,6.5,4.4,10.8,4.4c4.2,0,8.1-1.6,10.8-4.4l0.6-0.7l3.5,1c2.1,0.6,4,1.7,5.6,3.2l11.3,11.1l-7.6,7.6l-3.3-3.2
		c-0.8-0.7-1.9-0.9-2.8-0.5c-1,0.4-1.6,1.4-1.6,2.4l0.3,35.6h-33.5l0.2-35.6c0-1.1-0.6-2-1.6-2.4c-0.9-0.4-2.1-0.2-2.8,0.5l-3.3,3.1
		l-7.6-7.6L116.9,29.5z"/>
	<path class="st0" d="M111.3,150.8H74.1c-1.4,0-2.6,1.2-2.6,2.6v13.7c0,1.4,1.2,2.6,2.6,2.6h37.1c1.4,0,2.6-1.2,2.6-2.6v-13.7
		C113.9,151.9,112.7,150.8,111.3,150.8z M108.7,164.5H76.7V156h31.9V164.5z"/>
	<path class="st0" d="M115,138.1H67.2c-1.4,0-2.6,1.2-2.6,2.6c0,1.4,1.2,2.6,2.6,2.6H115c1.4,0,2.6-1.2,2.6-2.6
		C117.6,139.3,116.4,138.1,115,138.1z"/>
	<path class="st0" d="M164.2,103c0-1.4-1.2-2.6-2.6-2.6h-50.4c-1.4,0-2.6,1.2-2.6,2.6s1.2,2.6,2.6,2.6h50.4
		C163.1,105.6,164.2,104.5,164.2,103z"/>
	<path class="st0" d="M184.1,105.6H219c1,0,1.8-1.2,1.8-2.6s-0.8-2.6-1.8-2.6h-34.9c-1,0-1.8,1.2-1.8,2.6S183.2,105.6,184.1,105.6z"
		/>
	<path class="st0" d="M229.3,33.2h-37.7c-1.4,0-2.6,1.2-2.6,2.6c0,1.4,1.2,2.6,2.6,2.6h37.7c1.4,0,2.6-1.2,2.6-2.6
		C231.9,34.4,230.7,33.2,229.3,33.2z"/>
	<path class="st0" d="M229.3,48.7h-37.7c-1.4,0-2.6,1.2-2.6,2.6c0,1.4,1.2,2.6,2.6,2.6h37.7c1.4,0,2.6-1.2,2.6-2.6
		C231.9,49.9,230.7,48.7,229.3,48.7z"/>
	<path class="st0" d="M215.1,69.4c1.4,0,2.6-1.2,2.6-2.6c0-1.4-1.2-2.6-2.6-2.6h-23.5c-1.4,0-2.6,1.2-2.6,2.6c0,1.4,1.2,2.6,2.6,2.6
		H215.1z"/>
	<path class="st0" d="M220.5,135.1h-60.8c-2.3,0-4.2,1.2-4.2,2.6s1.9,2.6,4.2,2.6h60.8c2.3,0,4.2-1.2,4.2-2.6
		S222.8,135.1,220.5,135.1z"/>
	<path class="st0" d="M220.5,150.6h-60.8c-2.3,0-4.2,1.2-4.2,2.6s1.9,2.6,4.2,2.6h60.8c2.3,0,4.2-1.2,4.2-2.6
		S222.8,150.6,220.5,150.6z"/>
	<path class="st0" d="M197.6,166.1h-37.9c-2.3,0-4.2,1.2-4.2,2.6c0,1.4,1.9,2.6,4.2,2.6h37.9c2.3,0,4.2-1.2,4.2-2.6
		C201.8,167.3,199.9,166.1,197.6,166.1z"/>
</g>
</svg>
