<?xml version="1.0" encoding="utf-8"?>
<!-- Generator: Adobe Illustrator 24.0.0, SVG Export Plug-In . SVG Version: 6.00 Build 0)  -->
<svg version="1.1" id="Layer_1" xmlns="http://www.w3.org/2000/svg" xmlns:xlink="http://www.w3.org/1999/xlink" x="0px" y="0px"
	 viewBox="0 0 250 250" style="enable-background:new 0 0 250 250;" xml:space="preserve">
<style type="text/css">
	.st0{fill:#FFFFFF;}
</style>
<g>
	<path class="st0" d="M209.7,100.9l-82.3-41.1V45.2C138,43.9,146,34.8,146,24c0-11.7-9.6-21.3-21.3-21.3s-21.3,9.6-21.3,21.3
		c0,1.6,1.1,2.7,2.7,2.7c1.6,0,2.7-1.1,2.7-2.7c0-8.7,7.1-15.9,15.9-15.9s15.9,7.1,15.9,15.9s-7.1,15.9-15.9,15.9
		c-1.6,0-2.7,1.1-2.7,2.7v17l-82.3,41.4c-9,4.5-14.9,13.9-14.9,23.9c0,1.6,1.1,2.7,2.7,2.7h33.4v116.7c0,1.6,1.1,2.7,2.7,2.7h119.5
		c1.6,0,2.7-1.1,2.7-2.7V170c0-0.3,0-0.6-0.3-0.8l-13.8-41.6h49.8c1.6,0,2.7-1.1,2.7-2.7C224.6,114.7,219,105.5,209.7,100.9z
		 M180.4,223.1v18.5h-15.8v-18.5H180.4z M145.9,223.1v18.5h-13.2v-18.5H145.9z M114,223.1v18.5h-13.2v-18.5H114z M66.3,172.9
		L66.3,172.9L66.3,172.9l0.1-56h96.3l17.8,53.6v33.9h-5.3c-1.6,0-2.7,1.1-2.7,2.7s1.1,2.7,2.7,2.7h5.3v7.9h-18.5
		c-1.6,0-2.7,1.1-2.7,2.7v21.2h-7.8v-21.2c0-1.6-1.1-2.7-2.7-2.7H130c-1.6,0-2.7,1.1-2.7,2.7v21.2h-7.9v-21.2c0-1.6-1.1-2.7-2.7-2.7
		H98.2c-1.6,0-2.7,1.1-2.7,2.7v21.2h-7.8v-21.2c0-1.6-1.1-2.7-2.7-2.7H66.4v-7.9h5.3c1.6,0,2.7-1.1,2.7-2.7s-1.1-2.7-2.7-2.7h-5.3
		v-26.2h-0.1V172.9z M164.5,111.5H63.6c-1.6,0-2.7,1.1-2.7,2.7v7.9H30.5c0.8-7,5.1-13.1,11.6-16.4l82.5-41.4l82.6,41.2
		c6.4,3,10.8,9.3,11.6,16.4l-48.7,0.3l-2.9-8.7C166.6,112.3,165.6,111.5,164.5,111.5z M82.2,223.1v18.5H66.4v-18.5H82.2z"/>
	<path class="st0" d="M145.4,209.8h14.9c1.6,0,2.7-1.1,2.7-2.7s-1.1-2.7-2.7-2.7h-14.9c-1.6,0-2.7,1.1-2.7,2.7
		S143.8,209.8,145.4,209.8z"/>
	<path class="st0" d="M115.9,209.8h14.9c1.6,0,2.7-1.1,2.7-2.7c0-1.7-1.4-2.7-2.7-2.7h-14.9c-1.6,0-2.7,1.1-2.7,2.7
		S114.3,209.8,115.9,209.8z"/>
</g>
</svg>
