<?xml version="1.0" encoding="utf-8"?>
<!-- Generator: Adobe Illustrator 24.0.0, SVG Export Plug-In . SVG Version: 6.00 Build 0)  -->
<svg version="1.1" id="Layer_1" xmlns="http://www.w3.org/2000/svg" xmlns:xlink="http://www.w3.org/1999/xlink" x="0px" y="0px"
	 viewBox="0 0 250 250" style="enable-background:new 0 0 250 250;" xml:space="preserve">
<style type="text/css">
	.st0{fill:#FFFFFF;}
</style>
<path class="st0" d="M178.1,75.6c0.9,0.9,2,1.3,3.1,1.3s2.3-0.4,3.1-1.3c10.9-10.9,10.9-28.6,0-39.4c-1.7-1.7-4.5-1.7-6.2,0
	s-1.7,4.5,0,6.3c7.4,7.4,7.4,19.5,0,26.9C176.3,71.1,176.3,73.9,178.1,75.6z"/>
<path class="st0" d="M100.1,178.9c-7.8,7.8-18.2,12.1-29.3,12.1s-21.5-4.3-29.3-12.1c-7.8-7.8-12.1-18.2-12.1-29.3
	c0-11.1,4.3-21.4,12.1-29.3l43.8-43.8l51.8,51.8c2.7-1.6,5.4-3,8.3-4.2L91.5,70.4l43.8-43.8c7.8-7.8,18.2-12.1,29.3-12.1
	c11.1,0,21.5,4.3,29.3,12.1c16.1,16.2,16.1,42.4,0,58.6l-35.2,35.3c3.9-0.7,7.9-1.2,12-1.2c0.5,0,1,0.1,1.5,0.1l27.9-27.9
	c19.6-19.6,19.6-51.5,0-71c-9.5-9.5-22.1-14.7-35.5-14.7c-13.4,0-26,5.2-35.5,14.7l-93.8,93.8c-9.5,9.5-14.7,22.1-14.7,35.5
	c0,13.4,5.2,26,14.7,35.5c9.5,9.5,22.1,14.7,35.5,14.7c12.3,0,23.9-4.6,33.1-12.7c0-0.4-0.1-0.7-0.1-1.1c0-4.1,0.4-8.1,1.1-12
	L100.1,178.9z"/>
<path class="st0" d="M170.6,128.1c-32,0-57.9,26-57.9,57.9s26,57.9,57.9,57.9c31.9,0,57.9-26,57.9-57.9S202.6,128.1,170.6,128.1z
	 M121.5,186.1c0-27.1,22-49.1,49.1-49.1c13.9,0,26.4,5.8,35.4,15.2l-82.5,47.6C122.3,195.4,121.5,190.8,121.5,186.1z M129.7,213
	c-1.1-1.6-2-3.3-2.9-5l84.8-49c1.1,1.6,2,3.3,2.9,5L129.7,213z M170.6,235.2c-13.9,0-26.5-5.8-35.4-15.2l82.5-47.7
	c1.3,4.4,2,8.9,2,13.7C219.7,213.1,197.7,235.2,170.6,235.2z"/>
</svg>
