<?xml version="1.0" encoding="utf-8"?>
<!-- Generator: Adobe Illustrator 24.0.0, SVG Export Plug-In . SVG Version: 6.00 Build 0)  -->
<svg version="1.1" id="Layer_1" xmlns="http://www.w3.org/2000/svg" xmlns:xlink="http://www.w3.org/1999/xlink" x="0px" y="0px"
	 viewBox="0 0 234 234" style="enable-background:new 0 0 234 234;" xml:space="preserve">
<style type="text/css">
	.st0{fill:#FFFFFF;}
</style>
<g>
	<g>
		<g>
			<path class="st0" d="M83.8,133.2c1.4,3.9,2.1,7.9,2.2,12.2c0,5.1-1,9.9-2.9,14.4c-1.9,4.5-4.5,8.4-7.9,11.8
				c-3.3,3.3-7.3,6-11.8,7.9c-4.5,1.9-9.3,2.9-14.4,2.9h-0.3h-22v-19.5h22c2.5,0,4.8-0.5,7-1.4c2.1-0.9,4-2.2,5.6-3.8
				c1.6-1.6,2.8-3.4,3.7-5.6c0.9-2.1,1.3-4.4,1.3-6.8c0-4.4-1.4-8.2-4.2-11.4l-4.5-5.3c-1.7,2.5-3.6,4.9-5.6,7.2
				c-2.1,2.3-4.4,4.3-7,6c-2.6,1.7-5.3,3.1-8.4,4c-3,1-6.3,1.5-10,1.5V128c2.4,0,4.7-0.6,6.8-1.7c2.1-1.1,3.9-2.6,5.5-4.5
				c1.6-1.9,2.8-3.9,3.8-6.3c0.9-2.3,1.4-4.7,1.4-7.1h21.6l12.3,14.2C80.5,125.8,82.4,129.3,83.8,133.2z"/>
			<path class="st0" d="M171.9,89v19.6h-4.5c-2.4,0-4.7,0.5-6.8,1.4c-2.1,0.9-4,2.2-5.6,3.8c-1.6,1.6-2.8,3.4-3.8,5.6
				c-0.9,2.1-1.4,4.4-1.4,6.8v1.8h22v19.4h-22v35.1h-19.5v-56.2c0-5.1,1-9.9,2.9-14.4c1.9-4.5,4.5-8.4,7.9-11.8
				c3.3-3.4,7.3-6.1,11.8-8c4.5-1.9,9.3-2.9,14.4-2.9H171.9z"/>
			<path class="st0" d="M202.2,128c-2.4,0-4.7,0.5-6.8,1.4c-2.1,0.9-4,2.2-5.6,3.8c-1.6,1.6-2.8,3.4-3.7,5.6
				c-0.9,2.1-1.3,4.4-1.2,6.8v36.9h-19.8v-36.9c0-5.1,1-9.9,2.9-14.4c1.9-4.5,4.5-8.4,7.9-11.8c3.3-3.3,7.3-6,11.8-7.9
				c4.5-1.9,9.3-2.9,14.4-2.9h4.5V128H202.2z"/>
		</g>
	</g>
</g>
<path class="st0" d="M109.8,98.6l21.9-21.9c-1.2-11.2-10.6-20-22.1-20c-11.4,0-20.7,8.6-22,19.6L109.8,98.6z"/>
<path class="st0" d="M138.6,117.1c-7.4-7.4-16.5-11.2-27-11.2c-10.5,0-19.6,3.8-27,11.2c-7.4,7.4-11.2,16.5-11.2,27
	c0,10.5,3.8,19.6,11.2,27c7.4,7.4,16.5,11.2,27,11.2c3.8,0,7.4-0.5,10.8-1.4l1.3-0.4v-21.3l-2.7,1.5c-2.8,1.6-6,2.4-9.4,2.4
	c-5.3,0-9.7-1.8-13.5-5.6c-3.8-3.8-5.6-8.2-5.6-13.5s1.8-9.7,5.6-13.5c3.8-3.8,8.2-5.6,13.5-5.6s9.7,1.8,13.5,5.6
	c3.7,3.7,5.5,7.9,5.6,12.9v38.8h19.1v-38.2C149.8,133.6,146,124.5,138.6,117.1z"/>
</svg>
